<svg width="12" height="8" viewBox="0 0 12 8" fill="none" xmlns="http://www.w3.org/2000/svg">
<path d="M6.70891 3.91532C6.70891 5.65285 5.30997 7.06135 3.58517 7.06135C1.86037 7.06135 0.461426 5.65179 0.461426 3.91532C0.461426 2.17885 1.86037 0.769287 3.58517 0.769287C5.30997 0.769287 6.70891 2.17778 6.70891 3.91532Z" fill="#14A800"/>
<path d="M10.136 3.9152C10.136 5.55084 9.43656 6.87655 8.57363 6.87655C7.7107 6.87655 7.01123 5.55084 7.01123 3.9152C7.01123 2.27956 7.7107 0.953857 8.57363 0.953857C9.43656 0.953857 10.136 2.27956 10.136 3.9152Z" fill="#14A800"/>
<path d="M10.9883 6.56765C11.2919 6.56765 11.5381 5.37992 11.5381 3.91517C11.5381 2.44936 11.2919 1.2627 10.9883 1.2627C10.6847 1.2627 10.4385 2.45042 10.4385 3.91517C10.4385 5.37992 10.6847 6.56765 10.9883 6.56765Z" fill="#14A800"/>
</svg>
