<svg width="123" height="32" viewBox="0 0 123 32" fill="none" xmlns="http://www.w3.org/2000/svg">
<path d="M109.055 4.93652H111.819V11.7445C111.819 12.0418 111.919 12.2201 112.117 12.2796C112.315 12.3192 112.553 12.2003 112.83 11.9228C113.246 11.4868 113.702 11.1499 114.198 10.9121C114.713 10.6544 115.288 10.5256 115.922 10.5256H117.23C118.082 10.5256 118.865 10.7733 119.579 11.2688C120.292 11.7643 120.857 12.4481 121.273 13.3201C121.69 14.1723 121.898 15.1336 121.898 16.2038V25.7468H119.133V16.5606C119.133 15.8867 119.024 15.2822 118.806 14.7471C118.588 14.1922 118.271 13.766 117.854 13.4688C117.438 13.1516 116.963 12.9931 116.427 12.9931H115.298C114.624 12.9931 114.019 13.2111 113.484 13.6471C112.969 14.0832 112.563 14.6678 112.265 15.4011C111.968 16.1146 111.819 16.8876 111.819 17.72V25.7468H109.055V4.93652Z" fill="#14A800"/>
<path d="M100.602 10.5254C101.831 10.5254 102.921 10.8623 103.872 11.5362C104.843 12.21 105.596 13.1415 106.132 14.3307C106.686 15.5 106.964 16.8081 106.964 18.2549C106.964 19.6819 106.696 20.99 106.161 22.1792C105.626 23.3485 104.873 24.28 103.902 24.9737C102.951 25.6476 101.86 25.9845 100.632 25.9845H99.829C99.3137 25.9845 98.7885 25.8755 98.2534 25.6575C97.7182 25.4197 97.2327 25.1125 96.7966 24.7359C96.5192 24.5179 96.2813 24.4485 96.0831 24.5278C95.9048 24.6071 95.8156 24.7953 95.8156 25.0926V31.8114H93.0508V10.7632H95.8156V11.447C95.8156 11.7443 95.9147 11.9326 96.1129 12.0118C96.3111 12.0911 96.539 12.0218 96.7966 11.8037C97.2327 11.4074 97.7083 11.1002 98.2236 10.8821C98.7588 10.6443 99.2939 10.5254 99.829 10.5254H100.602ZM99.3236 12.9334C98.6299 12.9334 97.9957 13.1614 97.4209 13.6172C96.866 14.0532 96.4201 14.6875 96.0831 15.5199C95.7462 16.3325 95.5777 17.2442 95.5777 18.2549C95.5777 19.2657 95.7462 20.1873 96.0831 21.0198C96.4201 21.8324 96.866 22.4666 97.4209 22.9224C97.9957 23.3584 98.6299 23.5765 99.3236 23.5765H100.394C101.048 23.5765 101.652 23.3584 102.207 22.9224C102.782 22.4666 103.238 21.8324 103.575 21.0198C103.932 20.1873 104.11 19.2657 104.11 18.2549C104.11 17.2442 103.932 16.3325 103.575 15.5199C103.238 14.6875 102.782 14.0532 102.207 13.6172C101.652 13.1614 101.048 12.9334 100.394 12.9334H99.3236Z" fill="#14A800"/>
<path d="M89.4901 13.112C88.8559 13.112 88.3108 13.33 87.855 13.7661C87.419 14.1823 87.082 14.7174 86.8442 15.3714C86.6064 16.0056 86.4875 16.63 86.4875 17.2444V25.7468H83.7227V10.7634H86.4875V11.5661C86.4875 11.8832 86.5766 12.0715 86.755 12.131C86.9334 12.1706 87.1316 12.0715 87.3496 11.8337C87.6469 11.4571 87.9739 11.1895 88.3307 11.031C88.7072 10.8526 89.173 10.7634 89.7279 10.7634H91.5414V13.112H89.4901Z" fill="#14A800"/>
<path d="M74.063 25.9845C72.8342 25.9845 71.7243 25.6575 70.7333 25.0034C69.7622 24.3296 68.9892 23.408 68.4144 22.2387C67.8595 21.0495 67.582 19.7216 67.582 18.2549C67.582 16.7883 67.8595 15.4703 68.4144 14.301C68.9892 13.1118 69.7622 12.1902 70.7333 11.5362C71.7243 10.8623 72.8342 10.5254 74.063 10.5254H75.1629C76.3719 10.5254 77.4719 10.8623 78.4629 11.5362C79.4538 12.1902 80.2268 13.1118 80.7817 14.301C81.3565 15.4703 81.6439 16.7883 81.6439 18.2549C81.6439 19.7216 81.3565 21.0495 80.7817 22.2387C80.2268 23.408 79.4538 24.3296 78.4629 25.0034C77.4917 25.6575 76.3917 25.9845 75.1629 25.9845H74.063ZM75.1629 23.5765C75.817 23.5765 76.4215 23.3485 76.9764 22.8927C77.5512 22.4368 77.9971 21.8026 78.3142 20.99C78.6313 20.1774 78.7899 19.2657 78.7899 18.2549C78.7899 17.2442 78.6313 16.3424 78.3142 15.5496C77.9971 14.737 77.5512 14.1028 76.9764 13.6469C76.4215 13.1713 75.8071 12.9334 75.1332 12.9334H74.063C73.3891 12.9334 72.7747 13.1614 72.2198 13.6172C71.6648 14.0731 71.2189 14.7073 70.8819 15.5199C70.5648 16.3126 70.4063 17.2243 70.4063 18.2549C70.4063 19.2855 70.5648 20.2071 70.8819 21.0198C71.2189 21.8125 71.6648 22.4368 72.2198 22.8927C72.7747 23.3485 73.3891 23.5765 74.063 23.5765H75.1629Z" fill="#14A800"/>
<path d="M45.2441 4.93652H49.0792L54.8466 20.1578C54.9655 20.4749 55.1439 20.6335 55.3817 20.6335C55.6196 20.6335 55.7979 20.4749 55.9169 20.1578L61.6843 4.93652H65.5491V25.7468H62.6951L62.7248 12.1012C62.7248 11.8832 62.6554 11.7346 62.5167 11.6553C62.3978 11.5562 62.2591 11.5364 62.1005 11.5958C61.9618 11.6355 61.8627 11.7445 61.8032 11.9228L56.5114 25.7468H54.2223L48.99 11.9228C48.9107 11.7445 48.7918 11.6355 48.6333 11.5958C48.4945 11.5364 48.3657 11.5562 48.2468 11.6553C48.1279 11.7544 48.0684 11.903 48.0684 12.1012L48.0981 25.7468H45.2441V4.93652Z" fill="#14A800"/>
<path fill-rule="evenodd" clip-rule="evenodd" d="M0 31.041H11.0904V14.9146C11.0904 14.3976 11.8325 14.3146 11.9468 14.8188L14.5947 26.5049H21.2488V22.5323C21.2488 22.2929 21.4431 22.0988 21.6824 22.0988H32.2065V0.0733948H21.1161V4.04596C21.1161 4.28541 20.922 4.47951 20.6825 4.47951H9.604L10.5119 8.48637C10.5734 8.75758 10.3672 9.01571 10.0891 9.01571H0V31.041Z" fill="#14A800"/>
</svg>
